<svg xmlns="http://www.w3.org/2000/svg" xmlns:xlink="http://www.w3.org/1999/xlink" width="64" zoomAndPan="magnify" viewBox="0 0 48 48" height="64" preserveAspectRatio="xMidYMid meet" version="1.0"><defs><clipPath id="8fd48c035e"><path d="M 0.488281 12 L 47.507812 12 L 47.507812 47 L 0.488281 47 Z M 0.488281 12 " clip-rule="nonzero"/></clipPath></defs><path fill="#4fc62b" d="M 7.277344 13.964844 C 10.585938 8.214844 16.789062 4.34375 23.898438 4.34375 C 32.160156 4.34375 39.199219 9.570312 41.890625 16.894531 C 42.710938 15.625 43.53125 14.480469 44.402344 13.625 L 44.941406 13.09375 C 41.105469 5.351562 33.125 0.03125 23.898438 0.03125 C 15.777344 0.03125 8.617188 4.15625 4.40625 10.425781 L 4.75 10.773438 C 5.613281 11.644531 6.449219 12.742188 7.277344 13.964844 " fill-opacity="1" fill-rule="nonzero"/><g clip-path="url(#8fd48c035e)"><path fill="#ff8304" d="M 47.351562 24.527344 C 47.355469 24.359375 47.363281 24.191406 47.367188 24.023438 C 47.371094 23.851562 47.375 23.675781 47.375 23.503906 C 47.375 20.523438 46.816406 17.671875 45.804688 15.050781 C 42.765625 18.039062 39.613281 26.40625 36.289062 26.40625 C 32.878906 26.40625 30.054688 16.761719 26.644531 16.761719 C 22.894531 16.761719 19.789062 27.367188 16.039062 27.367188 C 11.601562 27.367188 7.390625 16.273438 3.332031 12.183594 C 1.730469 15.085938 0.726562 18.363281 0.484375 21.851562 C 4.3125 28.949219 11.59375 36.691406 16.039062 36.296875 C 22.007812 35.769531 23.632812 24.550781 27.785156 24.550781 C 30.792969 24.550781 33.410156 32.183594 36.289062 33.050781 C 37.8125 33.511719 39.507812 32.972656 41.164062 31.824219 C 38.066406 38.238281 31.5 42.664062 23.898438 42.664062 C 17.6875 42.664062 12.167969 39.707031 8.667969 35.125 C 5.636719 32.671875 2.722656 29.152344 0.542969 25.828125 C 1.710938 37.703125 11.722656 46.976562 23.898438 46.976562 C 36.519531 46.976562 46.8125 37.015625 47.351562 24.527344 " fill-opacity="1" fill-rule="nonzero"/></g></svg>